<svg xmlns="http://www.w3.org/2000/svg" viewBox="0 0 172.23 85.76">
  <defs>
    <style>
      .cls-1 {
        fill: #0d955a;
      }
    </style>
  </defs>
  <g id="レイヤー_2" data-name="レイヤー 2">
    <g id="レイヤー_1-2" data-name="レイヤー 1">
      <path class="cls-1" d="M84.16,22.75a9.71,9.71,0,0,0,3.24,2,11.34,11.34,0,0,0,4.11.72h0l11.49,0h.08V23H97.81a8.54,8.54,0,0,0,2.81-3,9.33,9.33,0,0,0,1.11-4.63A10.58,10.58,0,0,0,101,11.3a9.53,9.53,0,0,0-2.14-3.19A9.86,9.86,0,0,0,95.59,6a10.87,10.87,0,0,0-4-.74h0a10.73,10.73,0,0,0-4.1.76,9.67,9.67,0,0,0-3.24,2.09,9.53,9.53,0,0,0-2.14,3.19,10.22,10.22,0,0,0-.77,4.07A10.87,10.87,0,0,0,82,19.57,9,9,0,0,0,84.16,22.75ZM94.48,8.44a6.79,6.79,0,0,1,2.24,1.62,7.11,7.11,0,0,1,1.43,2.39,8.75,8.75,0,0,1,.5,2.93,8.55,8.55,0,0,1-.52,3,7.37,7.37,0,0,1-1.44,2.39,6.88,6.88,0,0,1-2.25,1.6,7.14,7.14,0,0,1-2.91.59h0a7.08,7.08,0,0,1-2.94-.58,6.71,6.71,0,0,1-2.24-1.59,7,7,0,0,1-1.44-2.39,8.54,8.54,0,0,1-.51-3,8.35,8.35,0,0,1,.5-2.93h0a7.24,7.24,0,0,1,1.44-2.39,7,7,0,0,1,2.25-1.63,7.07,7.07,0,0,1,3-.6h0A7.07,7.07,0,0,1,94.48,8.44Zm11.33,12,0-8.2h2.75v.08l0,7.23a9.27,9.27,0,0,0,.12,1.52,3.56,3.56,0,0,0,.45,1.26,2.39,2.39,0,0,0,.88.85,2.92,2.92,0,0,0,1.44.32h0a3,3,0,0,0,2.47-1.15,4.73,4.73,0,0,0,1-3.09v-7h2.75V22.55c0,.33,0,.76,0,1.35s0,1,.09,1.46v.09h-2.61v-.07c0-.33-.07-.71-.09-1.12s0-.59,0-.83a4.58,4.58,0,0,1-1.61,1.64,5,5,0,0,1-2.65.75h0a5.4,5.4,0,0,1-2.22-.42A4.14,4.14,0,0,1,107,24.23h0a5,5,0,0,1-.9-1.72A7.43,7.43,0,0,1,105.81,20.42Zm17.47-2.52a5.14,5.14,0,0,0-2.13,1.35,3.46,3.46,0,0,0-.82,2.42,3.77,3.77,0,0,0,.47,1.94A3.84,3.84,0,0,0,122,24.87a4.77,4.77,0,0,0,1.56.69,6.8,6.8,0,0,0,1.62.21h0a5.62,5.62,0,0,0,2.61-.6,5,5,0,0,0,1.78-1.57,8.32,8.32,0,0,0,.22,1.77l0,.06h2.5l0-.09a7.8,7.8,0,0,1-.15-1.19c0-.5,0-1,0-1.39V17a6.24,6.24,0,0,0-.34-2A4.53,4.53,0,0,0,129,12.23a6.84,6.84,0,0,0-2.47-.4h0a8.6,8.6,0,0,0-3,.53,7.09,7.09,0,0,0-2.38,1.46l-.06,0,1.49,1.78.06-.06a5,5,0,0,1,1.62-1.08,5.09,5.09,0,0,1,2-.43h0a3.55,3.55,0,0,1,2.29.69,2.53,2.53,0,0,1,.86,2.1v.28c-1.07,0-2.16.06-3.22.15A11.68,11.68,0,0,0,123.28,17.9Zm-.14,3.71a1.6,1.6,0,0,1,.52-1.27A3.56,3.56,0,0,1,125,19.6a10.08,10.08,0,0,1,1.87-.33c.68-.05,1.35-.08,2-.08h.56v.61a3.94,3.94,0,0,1-.95,2.7,3.59,3.59,0,0,1-2.75,1.07,4.19,4.19,0,0,1-.95-.1,2.41,2.41,0,0,1-.83-.33,1.84,1.84,0,0,1-.6-.61A1.72,1.72,0,0,1,123.14,21.61Zm12.57,3.73,0-20.19h2.75v.08l0,20.19h-2.75Zm9.13-19.08a1.7,1.7,0,0,1,.54,1.25,1.63,1.63,0,0,1-.54,1.25,1.8,1.8,0,0,1-1.27.49,1.78,1.78,0,0,1-1.26-.5,1.68,1.68,0,0,1-.51-1.23,1.67,1.67,0,0,1,.51-1.26,1.73,1.73,0,0,1,1.26-.51h0A1.74,1.74,0,0,1,144.84,6.26Zm-2.62,5.9,0,13.17v.07H145l0-13.17v-.07Zm5.52,0h2.51V8.39H153v3.75h3.48v2.28H153v6.72a2.46,2.46,0,0,0,.43,1.64,1.69,1.69,0,0,0,1.35.48,4.28,4.28,0,0,0,.76-.08,3,3,0,0,0,.72-.22l.11,0,.09,2.3,0,0a7.3,7.3,0,0,1-1.05.27,7.64,7.64,0,0,1-1.19.1h0a3.78,3.78,0,0,1-2.87-1.05,4.31,4.31,0,0,1-1-3.11v-7h-2.52Zm24.49,0-6.36,16.3a12.18,12.18,0,0,1-.73,1.49,4.83,4.83,0,0,1-.92,1.12,3.79,3.79,0,0,1-1.25.72,5.11,5.11,0,0,1-1.7.26,8.06,8.06,0,0,1-.85,0,7,7,0,0,1-.88-.15l-.07,0,.27-2.45.09,0a4.12,4.12,0,0,0,1.27.21,1.84,1.84,0,0,0,1.46-.54,5.65,5.65,0,0,0,.89-1.59l.82-2.16-5.66-13.15h3.07v0l4,10.15,3.58-10.21ZM104.44,34.24h3.07l-.05.19L102,53.11H99.07L99,53,94.62,38.48l-4.4,14.65H87.3l0-.11L81.72,34.27h3.12l0,.11,4,14.37,4.24-14.49H96.2l0,.11,4.23,14.37Zm10.09,19.14h0a7.61,7.61,0,0,0,3.2-.67,6.64,6.64,0,0,0,2.49-2.08l0-.06-1.88-1.51-.07-.05,0,.07a4.55,4.55,0,0,1-1.49,1.39,4.27,4.27,0,0,1-2.25.57h0a4.2,4.2,0,0,1-2.89-1.11,3.87,3.87,0,0,1-.91-1.24,3.7,3.7,0,0,1-.37-1.44h10.4v-.07a3.64,3.64,0,0,0,0-.45v-.44a8.75,8.75,0,0,0-.46-2.86,5.91,5.91,0,0,0-1.28-2.16,5.37,5.37,0,0,0-2-1.37,6.94,6.94,0,0,0-2.62-.47h0a6.92,6.92,0,0,0-2.71.52,6.41,6.41,0,0,0-3.63,3.66,7.75,7.75,0,0,0-.51,2.84,7.22,7.22,0,0,0,.54,2.84,6.32,6.32,0,0,0,3.66,3.6A7.63,7.63,0,0,0,114.53,53.38Zm-4.17-8.21a3.7,3.7,0,0,1,.39-1.34,4.12,4.12,0,0,1,.86-1.16,4.1,4.1,0,0,1,2.78-1.05h0a3.9,3.9,0,0,1,1.55.28,3,3,0,0,1,1.1.76,3.31,3.31,0,0,1,.68,1.15,4.89,4.89,0,0,1,.25,1.34ZM126.27,53V51a5.19,5.19,0,0,0,2,1.71,6.17,6.17,0,0,0,2.7.62h0a6.76,6.76,0,0,0,2.76-.55,6.17,6.17,0,0,0,2.09-1.5,6.75,6.75,0,0,0,1.33-2.23,7.81,7.81,0,0,0,.47-2.74,7.67,7.67,0,0,0-.48-2.72,6.69,6.69,0,0,0-1.35-2.22,6.23,6.23,0,0,0-2.1-1.47,6.63,6.63,0,0,0-2.67-.53h0a5.58,5.58,0,0,0-4.65,2.28V33.15h-2.75l0,19.77V53Zm-.09-6.61a5,5,0,0,1,.31-1.76,4.74,4.74,0,0,1,.88-1.49,4.23,4.23,0,0,1,1.37-1,4.1,4.1,0,0,1,1.77-.38h0a4.3,4.3,0,0,1,1.85.37,3.91,3.91,0,0,1,1.34,1,4.28,4.28,0,0,1,.82,1.48,6,6,0,0,1,.28,1.74,5.65,5.65,0,0,1-.27,1.74,4.42,4.42,0,0,1-.82,1.49,4.06,4.06,0,0,1-1.34,1,4.3,4.3,0,0,1-1.85.4h0a4.1,4.1,0,0,1-1.77-.38,4.32,4.32,0,0,1-1.37-1,4.6,4.6,0,0,1-.89-1.48A5.17,5.17,0,0,1,126.18,46.39ZM96,71.73a5,5,0,0,1,.54,2.45A5.87,5.87,0,0,1,96,76.85a5.42,5.42,0,0,1-1.52,1.88,6.38,6.38,0,0,1-2.19,1.11,9.2,9.2,0,0,1-2.55.37h0a9.28,9.28,0,0,1-3.59-.72,7.14,7.14,0,0,1-2.89-2.15l0-.06.06,0,2.19-1.85,0,.07a5.2,5.2,0,0,0,4.29,2.25h0a4.91,4.91,0,0,0,1.36-.19,3.61,3.61,0,0,0,1.23-.6,3.23,3.23,0,0,0,.9-1,2.91,2.91,0,0,0,.35-1.47A2.73,2.73,0,0,0,93.26,73a3.27,3.27,0,0,0-1-1,6.59,6.59,0,0,0-1.46-.7L89,70.73a15.75,15.75,0,0,1-1.85-.67,6.57,6.57,0,0,1-1.65-1,4.87,4.87,0,0,1-1.19-1.56,5.38,5.38,0,0,1-.45-2.3,5.14,5.14,0,0,1,.6-2.55,5.57,5.57,0,0,1,1.57-1.77,6.57,6.57,0,0,1,2.17-1,9.73,9.73,0,0,1,2.44-.32h0a8.56,8.56,0,0,1,3.21.6,6.57,6.57,0,0,1,2.44,1.65l0,.06-2,2,0-.07a4.41,4.41,0,0,0-1.55-1.29,4.81,4.81,0,0,0-2.2-.5h0a5,5,0,0,0-1.32.18A3.84,3.84,0,0,0,88,62.7a3.1,3.1,0,0,0-.87,1,2.78,2.78,0,0,0-.33,1.39,2.48,2.48,0,0,0,.31,1.3,2.78,2.78,0,0,0,.83.88,5.83,5.83,0,0,0,1.25.63l1.56.53c.66.2,1.34.43,2,.69a7.28,7.28,0,0,1,1.88,1A5.09,5.09,0,0,1,96,71.73Zm11.43-3H104v6.73a2.54,2.54,0,0,0,.42,1.64,1.71,1.71,0,0,0,1.35.48h0a4.18,4.18,0,0,0,.76-.08,3.12,3.12,0,0,0,.73-.22l.11,0,.09,2.3,0,0a7,7,0,0,1-1.05.27,7.64,7.64,0,0,1-1.19.1h0a3.81,3.81,0,0,1-2.88-1,4.35,4.35,0,0,1-1-3.11l0-7H98.74V66.45h2.51V62.69H104v3.75h3.48Zm15.06,10.85v.09h-2.61v-.07c0-.33-.07-.71-.08-1.12s0-.59,0-.83a4.42,4.42,0,0,1-1.61,1.64,5,5,0,0,1-2.65.75h0a5.38,5.38,0,0,1-2.21-.42,4.06,4.06,0,0,1-1.55-1.17,4.87,4.87,0,0,1-.9-1.72,7.09,7.09,0,0,1-.3-2.09v-8.2h2.75v7.31a8.27,8.27,0,0,0,.13,1.52,3.55,3.55,0,0,0,.44,1.25,2.45,2.45,0,0,0,.89.86,2.9,2.9,0,0,0,1.44.32h0a3.08,3.08,0,0,0,2.48-1.15,4.75,4.75,0,0,0,.94-3.09v-7h2.75v.08l0,10.27q0,.55,0,1.35C122.46,78.67,122.49,79.16,122.52,79.57Zm16.31-19.66h-2.75v8.35a6.05,6.05,0,0,0-1.82-1.55,5.69,5.69,0,0,0-2.82-.68h0a6.79,6.79,0,0,0-2.71.53,6.36,6.36,0,0,0-2.11,1.49,6.69,6.69,0,0,0-1.35,2.22,8.08,8.08,0,0,0,0,5.46A6.77,6.77,0,0,0,126.62,78a6.32,6.32,0,0,0,2.1,1.49,6.77,6.77,0,0,0,2.74.54h0a6.27,6.27,0,0,0,2.72-.63,4.88,4.88,0,0,0,2-1.71v2h2.66l0-19.64Zm-5.14,8.84a4.2,4.2,0,0,1,1.37,1,4.74,4.74,0,0,1,.88,1.49,5.1,5.1,0,0,1,0,3.53,4.69,4.69,0,0,1-.88,1.48,4.32,4.32,0,0,1-1.37,1,4.13,4.13,0,0,1-1.77.38h0a4,4,0,0,1-3.17-1.42,4.39,4.39,0,0,1-.81-1.49,5.37,5.37,0,0,1-.28-1.74,5.65,5.65,0,0,1,.27-1.74,4.39,4.39,0,0,1,.81-1.49,4.1,4.1,0,0,1,1.33-1,4.23,4.23,0,0,1,1.84-.38h0A4.13,4.13,0,0,1,133.69,68.75Zm11.61-2.3,0,13.17h-2.75v-.07l0-13.17h2.76ZM143.89,60a1.71,1.71,0,0,0-1.25.51,1.67,1.67,0,0,0-.52,1.26,1.65,1.65,0,0,0,.52,1.22,1.71,1.71,0,0,0,1.26.51h0a1.8,1.8,0,0,0,1.27-.5,1.62,1.62,0,0,0,.53-1.24,1.69,1.69,0,0,0-.53-1.26A1.81,1.81,0,0,0,143.89,60Zm16.45,8a6.91,6.91,0,0,0-2.28-1.44,7.66,7.66,0,0,0-2.81-.51h0a7.72,7.72,0,0,0-2.82.52A6.78,6.78,0,0,0,150.16,68a6.9,6.9,0,0,0-1.49,2.2,7.1,7.1,0,0,0-.54,2.8,7.2,7.2,0,0,0,.55,2.82,6.85,6.85,0,0,0,1.5,2.22,6.59,6.59,0,0,0,2.27,1.45,7.56,7.56,0,0,0,2.79.51h0a7.72,7.72,0,0,0,2.82-.52,6.74,6.74,0,0,0,3.78-3.68,7.2,7.2,0,0,0,.54-2.82,7.06,7.06,0,0,0-.55-2.8A6.4,6.4,0,0,0,160.34,68Zm-6.93,9.3a4,4,0,0,1-1.35-1,4.72,4.72,0,0,1-.83-1.49,5.61,5.61,0,0,1,0-3.53,4.47,4.47,0,0,1,.83-1.48,4,4,0,0,1,1.34-1,4.15,4.15,0,0,1,1.84-.38h0a4.23,4.23,0,0,1,1.82.37,4,4,0,0,1,1.34,1,4.37,4.37,0,0,1,.84,1.47,5.52,5.52,0,0,1,.29,1.77,5.46,5.46,0,0,1-.29,1.76,4.77,4.77,0,0,1-.83,1.5,3.82,3.82,0,0,1-1.34,1,4.28,4.28,0,0,1-1.83.38h0A4.27,4.27,0,0,1,153.41,77.25ZM35.84,72.9a35.78,35.78,0,0,1,1.66,7L0,85.76V78.27ZM36.1,0a33,33,0,1,0,33,33A33.06,33.06,0,0,0,36.1,0Zm0,59.88c-11.81,0-21.42-12.11-21.42-27s9.61-27,21.42-27S57.54,18,57.54,32.88,47.93,59.88,36.12,59.88Z"/>
    </g>
  </g>
</svg>
