<svg xmlns="http://www.w3.org/2000/svg" viewBox="0 0 105.98 87.47">
  <defs>
    <style>
      .cls-1 {
        fill: #fff;
      }
    </style>
  </defs>
  <g id="レイヤー_2" data-name="レイヤー 2">
    <g id="レイヤー_1-2" data-name="レイヤー 1">
      <path class="cls-1" d="M3.34,3.43A11.1,11.1,0,0,0,.89,7.09,12.13,12.13,0,0,0,0,11.78a12.85,12.85,0,0,0,.87,4.79A10.35,10.35,0,0,0,3.3,20.2,11,11,0,0,0,7,22.52a13.11,13.11,0,0,0,4.72.83h0l13.31,0V21H18.3l.7-.45A9.84,9.84,0,0,0,22.21,17a10.66,10.66,0,0,0,1.26-5.3,12.19,12.19,0,0,0-.88-4.68,10.91,10.91,0,0,0-2.45-3.65A11.18,11.18,0,0,0,16.43,1,12.3,12.3,0,0,0,11.8.17,12.55,12.55,0,0,0,7.05,1,11.38,11.38,0,0,0,3.34,3.43Zm8.43-.76a8.45,8.45,0,0,1,3.56.72,8.35,8.35,0,0,1,2.71,2,8.59,8.59,0,0,1,1.72,2.88,10.39,10.39,0,0,1,.59,3.51,10,10,0,0,1-.62,3.57A8.85,8.85,0,0,1,18,18.2a8.35,8.35,0,0,1-2.71,1.93,8.67,8.67,0,0,1-3.51.71,8.67,8.67,0,0,1-3.56-.7A8.39,8.39,0,0,1,5.5,18.22a8.76,8.76,0,0,1-1.73-2.89,10.17,10.17,0,0,1-.62-3.56,10.08,10.08,0,0,1,.6-3.49A8.54,8.54,0,0,1,5.5,5.37a8.63,8.63,0,0,1,2.71-2A8.55,8.55,0,0,1,11.77,2.67Zm17,15V8.29h2.73l0,8.32a10.73,10.73,0,0,0,.15,1.82A4.5,4.5,0,0,0,32.18,20a3.11,3.11,0,0,0,1.13,1.09,3.63,3.63,0,0,0,1.82.4,3.85,3.85,0,0,0,3.1-1.43,5.84,5.84,0,0,0,1.16-3.78l0-8h2.74l0,11.88c0,.44,0,1,0,1.59s.05,1.08.09,1.56H39.67c0-.35-.06-.74-.08-1.16s0-.69,0-1v-.94l-.45.82a5,5,0,0,1-1.8,1.84,5.58,5.58,0,0,1-3,.83,6.27,6.27,0,0,1-2.5-.46A4.76,4.76,0,0,1,30.12,22l0,0a5.7,5.7,0,0,1-1-1.94h0A8.6,8.6,0,0,1,28.74,17.65Zm18.84,5a5.52,5.52,0,0,0,1.75.77,8.12,8.12,0,0,0,1.84.23,6.23,6.23,0,0,0,3-.66,5.82,5.82,0,0,0,2-1.77l.44-.62v.76a9.47,9.47,0,0,0,.23,1.89h2.44A9.12,9.12,0,0,1,59.1,22c0-.58-.05-1.14-.05-1.64V13.69a6.91,6.91,0,0,0-.38-2.31,5,5,0,0,0-1.14-1.85,5.11,5.11,0,0,0-1.93-1.24,7.68,7.68,0,0,0-2.8-.46,9.89,9.89,0,0,0-3.47.61A8.19,8.19,0,0,0,46.72,10l1.42,1.7A6.56,6.56,0,0,1,50,10.5a6.29,6.29,0,0,1,2.5-.52,4.48,4.48,0,0,1,2.85.86,3.18,3.18,0,0,1,1.1,2.66v.57h-.25c-1.21,0-2.47.06-3.75.17a13.84,13.84,0,0,0-3.38.69,5.79,5.79,0,0,0-2.4,1.52,3.8,3.8,0,0,0-.89,2.66,4.21,4.21,0,0,0,.51,2.16A4.38,4.38,0,0,0,47.58,22.67Zm1.68-5.3A4.43,4.43,0,0,1,51,16.46a12,12,0,0,1,2.23-.4C54,16,54.79,16,55.54,16h.9v1a4.8,4.8,0,0,1-1.18,3.32,4.4,4.4,0,0,1-3.4,1.34,5.64,5.64,0,0,1-1.16-.12h0a3.1,3.1,0,0,1-1.06-.42,2.56,2.56,0,0,1-.78-.79A2.42,2.42,0,0,1,48.57,19,2.09,2.09,0,0,1,49.26,17.37ZM63.76,0h2.73l0,23.26H63.79Zm7.65,8.22h2.74l0,15H71.44Zm2.69-7a1.7,1.7,0,0,1,.52,1.27,1.69,1.69,0,0,1-.54,1.28,1.94,1.94,0,0,1-1.32.51,1.84,1.84,0,0,1-1.31-.52,1.71,1.71,0,0,1-.53-1.27,1.74,1.74,0,0,1,.53-1.29A1.8,1.8,0,0,1,72.76.71a1.85,1.85,0,0,1,1.31.52Zm3.79,9.13V8.21h2.94V3.81h2.69V8.2h4.08v2.19H83.54v8.13a3.14,3.14,0,0,0,.56,2.08,2.8,2.8,0,0,0,2.7.55,3.78,3.78,0,0,0,.7-.19l.09,2.16a7.1,7.1,0,0,1-1.08.26,7.51,7.51,0,0,1-1.37.12A4.25,4.25,0,0,1,82,22.34a4.88,4.88,0,0,1-1.11-3.48V10.39ZM92.52,30.93a5.31,5.31,0,0,1-.86-.14l.25-2.36a4.82,4.82,0,0,0,1.39.2,2.41,2.41,0,0,0,1.89-.71,6.5,6.5,0,0,0,1.09-2l1-2.52,0-.09L90.75,8.19h3l4.93,12.41,4.35-12.42H106L98.65,26.93a11.84,11.84,0,0,1-.83,1.71,5.15,5.15,0,0,1-1,1.26,4.33,4.33,0,0,1-1.39.79,5.67,5.67,0,0,1-1.9.29C93.18,31,92.85,31,92.52,30.93ZM30.17,34.09,23.85,55.72H20.79l-5.16-17L15.4,38,10.05,55.74H7L.6,34.14H3.75l4.9,17.61,5.16-17.62h3.25l5.18,17.62,4.85-17.64ZM45.8,48.83a2.17,2.17,0,0,0,0-.36V48h0a10.06,10.06,0,0,0-.51-3.27,7,7,0,0,0-1.45-2.45,6.3,6.3,0,0,0-2.28-1.54,8,8,0,0,0-3-.54,8.16,8.16,0,0,0-3.11.59A7.57,7.57,0,0,0,33,42.39a7.48,7.48,0,0,0-1.64,2.52,8.92,8.92,0,0,0-.58,3.23,8.46,8.46,0,0,0,.61,3.24,7.52,7.52,0,0,0,1.65,2.49,7.32,7.32,0,0,0,2.51,1.59,8.54,8.54,0,0,0,3.16.57,8.65,8.65,0,0,0,3.66-.76A7.46,7.46,0,0,0,45.12,53l-1.89-1.51a5.83,5.83,0,0,1-1.73,1.56,5.35,5.35,0,0,1-2.77.7,5.23,5.23,0,0,1-1.94-.36,5.09,5.09,0,0,1-1.62-1,4.73,4.73,0,0,1-1.12-1.52,4.5,4.5,0,0,1-.45-1.78l0-.26h.26ZM33.57,46.9l0-.27A4.47,4.47,0,0,1,34.07,45a5.2,5.2,0,0,1,1.07-1.42,4.88,4.88,0,0,1,1.53-.95,5.43,5.43,0,0,1,3.81,0A3.9,3.9,0,0,1,42.7,45,6.2,6.2,0,0,1,43,46.62v.26Zm21.34,8.39A6.89,6.89,0,0,0,58,56a7.7,7.7,0,0,0,3.15-.62,7.29,7.29,0,0,0,2.37-1.7A7.72,7.72,0,0,0,65,51.14,8.94,8.94,0,0,0,65.53,48a9.06,9.06,0,0,0-.55-3.1,7.6,7.6,0,0,0-1.54-2.52,7.12,7.12,0,0,0-2.37-1.67,7.48,7.48,0,0,0-3-.6,6.34,6.34,0,0,0-5.28,2.56l-.45.62V32.82H49.57l0,22.76h2.64V52.73l.45.65A5.8,5.8,0,0,0,54.91,55.29Zm-2.78-7.2a6.16,6.16,0,0,1,.38-2.15,5.46,5.46,0,0,1,1.08-1.82,5.15,5.15,0,0,1,1.68-1.27,5,5,0,0,1,2.18-.47,5.24,5.24,0,0,1,2.28.46,4.66,4.66,0,0,1,1.66,1.27,5.19,5.19,0,0,1,1,1.82A6.85,6.85,0,0,1,62.73,48a7,7,0,0,1-.33,2.12,5.47,5.47,0,0,1-1,1.82,5,5,0,0,1-1.65,1.29,5.55,5.55,0,0,1-4.47,0,5.48,5.48,0,0,1-1.68-1.24,5.72,5.72,0,0,1-1.09-1.81A6.28,6.28,0,0,1,52.13,48.09ZM2.34,84.32l2.24-1.9A6.39,6.39,0,0,0,9.73,85a6,6,0,0,0,1.66-.24,4.57,4.57,0,0,0,1.52-.74A3.87,3.87,0,0,0,14,82.79,3.68,3.68,0,0,0,14.47,81,3.42,3.42,0,0,0,14,79.14a4.12,4.12,0,0,0-1.23-1.23A8.07,8.07,0,0,0,11,77.07c-.61-.21-1.27-.43-2.1-.69a19.48,19.48,0,0,1-2.14-.78,7.64,7.64,0,0,1-1.88-1.17,5.39,5.39,0,0,1-1.32-1.75,6.14,6.14,0,0,1-.51-2.58,5.83,5.83,0,0,1,.67-2.87,6.19,6.19,0,0,1,1.77-2A7.59,7.59,0,0,1,8,64.07a11.18,11.18,0,0,1,2.81-.37,9.8,9.8,0,0,1,3.68.7,7.32,7.32,0,0,1,2.66,1.76l-2,2a5.37,5.37,0,0,0-1.79-1.44,5.82,5.82,0,0,0-2.69-.61A6.31,6.31,0,0,0,9,66.3,4.27,4.27,0,0,0,7.51,67a3.86,3.86,0,0,0-1.1,1.21A3.48,3.48,0,0,0,6,70a3.13,3.13,0,0,0,.4,1.65,3.61,3.61,0,0,0,1.05,1.12A6.73,6.73,0,0,0,9,73.48c.51.19,1.09.39,1.84.64s1.59.51,2.35.8a8,8,0,0,1,2.13,1.17,5.78,5.78,0,0,1,1.55,1.81,5.64,5.64,0,0,1,.6,2.76,6.65,6.65,0,0,1-.64,3,6.28,6.28,0,0,1-1.72,2.12h0a7.3,7.3,0,0,1-2.49,1.25,10.28,10.28,0,0,1-2.93.42,10.62,10.62,0,0,1-4.11-.82A8.24,8.24,0,0,1,2.34,84.32ZM20.47,74V71.84h2.95v-4.4h2.7v4.4h4.07V74H26.11v8.13a3.19,3.19,0,0,0,.56,2.08,2.73,2.73,0,0,0,2.71.55,3.78,3.78,0,0,0,.7-.19l.08,2.16a6.33,6.33,0,0,1-1.08.26,7.64,7.64,0,0,1-1.36.12A4.23,4.23,0,0,1,24.54,86a4.83,4.83,0,0,1-1.11-3.48l0-8.47Zm13.86,7.16,0-9.36H37l0,8.33A10.9,10.9,0,0,0,37.21,82a4.52,4.52,0,0,0,.55,1.55,3,3,0,0,0,1.13,1.09,3.66,3.66,0,0,0,1.82.41,3.83,3.83,0,0,0,3.1-1.44A5.79,5.79,0,0,0,45,79.8v-8h2.73l0,11.88c0,.44,0,1,0,1.59s0,1.1.09,1.55H45.26c0-.37-.07-.76-.08-1.16s0-.68,0-1v-1l-.45.84a4.91,4.91,0,0,1-1.8,1.83,5.5,5.5,0,0,1-3,.84,6.13,6.13,0,0,1-2.5-.47,4.51,4.51,0,0,1-1.72-1.3,5.56,5.56,0,0,1-1-1.93A8,8,0,0,1,34.33,81.18ZM63.89,84.6l.45-.67V86.8H67l0-22.61H64.22V74.45l-.44-.58a6.55,6.55,0,0,0-2.06-1.74,6.37,6.37,0,0,0-3.18-.77,7.58,7.58,0,0,0-3.09.61,7,7,0,0,0-2.39,1.68,7.57,7.57,0,0,0-1.53,2.52,9.15,9.15,0,0,0,0,6.22,7.52,7.52,0,0,0,1.53,2.53,7,7,0,0,0,2.37,1.7,7.79,7.79,0,0,0,3.12.61,7,7,0,0,0,3.11-.72A5.46,5.46,0,0,0,63.89,84.6Zm-2.6-.09a5.45,5.45,0,0,1-4.45,0,5.16,5.16,0,0,1-1.64-1.28,5.47,5.47,0,0,1-1-1.82,7.13,7.13,0,0,1-.34-2.12,6.84,6.84,0,0,1,.33-2.11,5.52,5.52,0,0,1,1-1.83,5,5,0,0,1,1.63-1.27,5.38,5.38,0,0,1,2.27-.47A5,5,0,0,1,63,75.33a5.88,5.88,0,0,1,1.09,1.82,6.28,6.28,0,0,1,.38,2.15,6,6,0,0,1-.38,2.15A5.42,5.42,0,0,1,63,83.26,5.24,5.24,0,0,1,61.29,84.51ZM74.46,64.77A1.72,1.72,0,0,1,75,66.06a1.67,1.67,0,0,1-.55,1.28,1.87,1.87,0,0,1-1.32.51,1.77,1.77,0,0,1-1.3-.52,1.68,1.68,0,0,1-.54-1.26,1.79,1.79,0,0,1,1.83-1.82A1.86,1.86,0,0,1,74.46,64.77Zm-2.66,7h2.73l0,15H71.82Zm20.43,1.77a7.51,7.51,0,0,0-2.59-1.63,8.71,8.71,0,0,0-3.2-.59,8.54,8.54,0,0,0-3.22.6A7.42,7.42,0,0,0,79,76a7.92,7.92,0,0,0-.61,3.19,8.12,8.12,0,0,0,.62,3.2A7.77,7.77,0,0,0,80.67,85a7.6,7.6,0,0,0,2.57,1.64,8.66,8.66,0,0,0,3.2.58,8.79,8.79,0,0,0,3.23-.59,7.76,7.76,0,0,0,2.58-1.65A7.64,7.64,0,0,0,94,82.41a8.2,8.2,0,0,0,.61-3.21A8.07,8.07,0,0,0,94,76,7.26,7.26,0,0,0,92.23,73.53Zm-.86,7.84a6.07,6.07,0,0,1-1,1.83,5,5,0,0,1-1.66,1.27,5.35,5.35,0,0,1-2.25.47,5.28,5.28,0,0,1-2.26-.47,4.75,4.75,0,0,1-1.66-1.26,5.52,5.52,0,0,1-1-1.82,6.87,6.87,0,0,1-.36-2.15,6.68,6.68,0,0,1,.35-2.15,5.37,5.37,0,0,1,1-1.81A4.91,4.91,0,0,1,84.16,74a5.7,5.7,0,0,1,4.51,0,5,5,0,0,1,1.67,1.25,5.71,5.71,0,0,1,1,1.81,6.67,6.67,0,0,1,.35,2.14A6.77,6.77,0,0,1,91.37,81.37Z"/>
    </g>
  </g>
</svg>
